<?xml version="1.0" encoding="utf-8"?>
<!-- Generator: Adobe Illustrator 24.0.1, SVG Export Plug-In . SVG Version: 6.00 Build 0)  -->
<svg version="1.1" id="Layer_1" xmlns="http://www.w3.org/2000/svg" xmlns:xlink="http://www.w3.org/1999/xlink" x="0px" y="0px"
	 viewBox="0 0 46 21" style="enable-background:new 0 0 46 21;" xml:space="preserve">
<style type="text/css">
	.st0{fill:#FFFFFF;}
	.st1{fill:#231F20;}
</style>
<g>
	<path class="st0" d="M29.54,16.93c0.09,0,0.13,0.05,0.15,0.13l0.34,1.39c0.01,0.05,0.05,0.05,0.06,0l0.34-1.39
		c0.02-0.08,0.07-0.13,0.15-0.13h0.99c0.1,0,0.14,0.05,0.14,0.14v3.06c0,0.09-0.05,0.14-0.14,0.14h-0.54
		c-0.09,0-0.14-0.05-0.14-0.14v-1.89c0-0.03-0.04-0.04-0.05,0l-0.46,1.91c-0.02,0.08-0.07,0.12-0.16,0.12h-0.32
		c-0.09,0-0.14-0.04-0.16-0.12l-0.46-1.91c-0.01-0.03-0.05-0.03-0.05,0v1.89c0,0.09-0.05,0.14-0.14,0.14h-0.54
		c-0.1,0-0.14-0.05-0.14-0.14v-3.06c0-0.1,0.05-0.14,0.14-0.14H29.54z"/>
	<path class="st0" d="M34.52,20.12c0,0.11-0.05,0.16-0.14,0.16h-0.54c-0.09,0-0.14-0.05-0.14-0.14v-0.42c0-0.1-0.05-0.14-0.14-0.14
		h-0.41c-0.09,0-0.14,0.05-0.14,0.14v0.42c0,0.1-0.05,0.14-0.14,0.14h-0.54c-0.09,0-0.14-0.06-0.14-0.16v-2.03
		c0-0.6,0.1-1.24,1.17-1.24c1.08,0,1.17,0.64,1.17,1.24V20.12z M33.7,18.09c0-0.23-0.03-0.34-0.35-0.34c-0.32,0-0.35,0.11-0.35,0.34
		v0.52c0,0.09,0.05,0.14,0.14,0.14h0.41c0.1,0,0.14-0.05,0.14-0.15V18.09z"/>
	<path class="st0" d="M35.65,17.9c0-0.1-0.05-0.14-0.14-0.14h-0.67c-0.09,0-0.14-0.05-0.14-0.14v-0.54c0-0.1,0.05-0.14,0.14-0.14
		h2.45c0.1,0,0.14,0.05,0.14,0.14v0.54c0,0.09-0.05,0.14-0.14,0.14h-0.67c-0.09,0-0.14,0.05-0.14,0.14v2.24
		c0,0.09-0.05,0.14-0.14,0.14h-0.54c-0.09,0-0.14-0.05-0.14-0.14V17.9z"/>
	<path class="st0" d="M38.38,16.93c0.1,0,0.14,0.05,0.14,0.14v3.06c0,0.09-0.05,0.14-0.14,0.14h-0.53c-0.09,0-0.14-0.05-0.14-0.14
		v-3.06c0-0.1,0.05-0.14,0.14-0.14H38.38z"/>
	<path class="st0" d="M39.64,19.46c0.1,0,0.14,0.05,0.14,0.14v0.54c0,0.09-0.05,0.14-0.14,0.14H39.1c-0.09,0-0.14-0.05-0.14-0.14
		V19.6c0-0.1,0.05-0.14,0.14-0.14H39.64z"/>
	<path class="st0" d="M40.09,18.01c0-0.32,0.07-1.16,1.2-1.16c1.02,0,1.18,0.68,1.2,1.05c0,0.07-0.04,0.12-0.11,0.13l-0.53,0.12
		c-0.1,0.02-0.18-0.05-0.19-0.15c-0.02-0.21-0.11-0.34-0.37-0.34c-0.35,0-0.38,0.22-0.38,0.59v0.69c0,0.37,0.02,0.59,0.38,0.59
		c0.26,0,0.34-0.12,0.36-0.34c0.01-0.1,0.09-0.16,0.19-0.14l0.54,0.12c0.07,0.01,0.11,0.07,0.11,0.14c-0.02,0.36-0.18,1.05-1.2,1.05
		c-1.13,0-1.2-0.85-1.2-1.16V18.01z"/>
	<path class="st0" d="M43.5,16.93c0.1,0,0.14,0.05,0.14,0.14v2.24c0,0.09,0.05,0.14,0.14,0.14h1.07c0.1,0,0.14,0.05,0.14,0.14v0.54
		c0,0.1-0.05,0.14-0.14,0.14h-1.89c-0.09,0-0.14-0.05-0.14-0.14v-3.06c0-0.1,0.05-0.14,0.14-0.14H43.5z"/>
</g>
<path class="st1" d="M0.34,5.98c0-1.19,0.25-4.39,4.54-4.39c3.85,0,4.45,2.59,4.52,3.98C9.42,5.82,9.25,6.02,9,6.08L6.99,6.53
	C6.61,6.6,6.32,6.35,6.27,5.97C6.18,5.17,5.85,4.7,4.88,4.7c-1.34,0-1.43,0.85-1.43,2.24v2.6c0,1.39,0.09,2.24,1.43,2.24
	c0.99,0,1.27-0.47,1.37-1.3c0.05-0.38,0.34-0.61,0.71-0.52L9,10.41c0.25,0.05,0.42,0.25,0.4,0.52c-0.07,1.38-0.67,3.96-4.52,3.96
	c-4.29,0-4.54-3.2-4.54-4.39V5.98z"/>
<path class="st1" d="M22.95,2.24c0.33,0,0.52,0.16,0.6,0.47l1.59,6.94c0.04,0.16,0.18,0.16,0.22,0l1.59-6.94
	c0.07-0.31,0.27-0.47,0.6-0.47h2.15c0.38,0,0.56,0.22,0.47,0.6l-2.64,11.59c-0.07,0.31-0.27,0.47-0.6,0.47h-3.36
	c-0.33,0-0.52-0.16-0.6-0.47L20.32,2.84c-0.09-0.38,0.09-0.6,0.47-0.6H22.95z"/>
<path class="st1" d="M33.92,2.24c0.36,0,0.54,0.18,0.54,0.54v11.57c0,0.34-0.18,0.54-0.54,0.54h-1.99c-0.34,0-0.54-0.2-0.54-0.54
	V2.78c0-0.36,0.2-0.54,0.54-0.54H33.92z"/>
<path class="st1" d="M40.85,2.24c3.4,0,4.52,1.37,4.52,4.34v3.96c0,2.96-1.12,4.36-4.52,4.36h-4.03c-0.34,0-0.54-0.2-0.54-0.54V2.8
	c0-0.36,0.18-0.54,0.54-0.56H40.85z M40.91,11.79c0.87,0,1.3-0.14,1.3-1.23c0-0.02,0-3.96,0-3.98c0-1.12-0.43-1.23-1.3-1.23h-0.98
	c-0.34,0-0.54,0.18-0.54,0.54v5.35c0,0.34,0.2,0.54,0.54,0.54H40.91z"/>
<path class="st0" d="M12.68,13.79l1.01-3.54c-0.1-0.36-0.12-0.82-0.12-1.38v-2.6c0-1.39,0.09-2.24,1.43-2.24
	c0.17,0,0.32,0.02,0.46,0.04l0.87-3.03C15.93,0.96,15.5,0.92,15,0.92c-4.29,0-4.54,3.2-4.54,4.39v4.52
	C10.47,10.75,10.63,12.87,12.68,13.79z"/>
<path class="st1" d="M17.28,2.33l-0.99,3.48c0.12,0.37,0.15,0.86,0.15,1.45v2.6c0,1.39-0.09,2.24-1.43,2.24
	c-0.19,0-0.36-0.02-0.5-0.06l-0.87,3.04c0.4,0.08,0.86,0.13,1.37,0.13c4.29,0,4.54-3.2,4.54-4.39V6.31
	C19.54,5.38,19.38,3.24,17.28,2.33z"/>
<g>
	<path class="st0" d="M27.04,17.73C27.02,17.75,27,17.74,27,17.71v-0.85c0-0.02,0-0.02,0.02-0.02h0.11c0.01,0,0.02,0,0.02,0.02v0.2
		c0,0.04-0.01,0.07-0.02,0.1l0.01,0c0.04-0.06,0.09-0.09,0.16-0.09c0.13,0,0.21,0.15,0.21,0.33c0,0.18-0.09,0.33-0.25,0.33
		c-0.07,0-0.14-0.04-0.16-0.06L27.04,17.73z M27.15,17.26v0.34c0.02,0.02,0.04,0.02,0.08,0.02c0.07,0,0.12-0.07,0.12-0.22
		c0-0.13-0.04-0.19-0.11-0.19C27.21,17.22,27.17,17.23,27.15,17.26z"/>
	<path class="st0" d="M27.7,17.1c0.02,0,0.03,0.01,0.03,0.02c0,0,0.09,0.33,0.11,0.49h0.01c0.01-0.16,0.1-0.49,0.1-0.49
		c0-0.02,0.01-0.02,0.03-0.02h0.1c0.02,0,0.03,0.01,0.02,0.02l-0.17,0.65c-0.04,0.14-0.13,0.19-0.23,0.22
		c-0.02,0.01-0.02,0.01-0.03,0l-0.03-0.08c-0.01-0.01,0-0.02,0.01-0.02c0.07-0.02,0.12-0.06,0.13-0.11l0.01-0.04h-0.02
		c-0.03,0-0.06-0.01-0.07-0.06l-0.15-0.56c0-0.02,0-0.02,0.02-0.02H27.7z"/>
</g>
</svg>
